<?xml version="1.0" encoding="utf-8"?>
<!-- Generator: Adobe Illustrator 16.0.3, SVG Export Plug-In . SVG Version: 6.00 Build 0)  -->
<!DOCTYPE svg PUBLIC "-//W3C//DTD SVG 1.1//EN" "http://www.w3.org/Graphics/SVG/1.1/DTD/svg11.dtd">
<svg version="1.1" id="Layer_1" xmlns="http://www.w3.org/2000/svg" xmlns:xlink="http://www.w3.org/1999/xlink" x="0px" y="0px"
	 width="612px" height="792px" viewBox="0 0 612 792" enable-background="new 0 0 612 792" xml:space="preserve">
<g>
	<g>
		<g>
			<path fill="#17C7D2" d="M141.738,203.999c0,0-0.123-0.358-0.363-1.053c-0.061-0.173-0.127-0.368-0.201-0.583
				c-0.096-0.207-0.2-0.433-0.314-0.679c-0.113-0.246-0.236-0.511-0.367-0.795c-0.148-0.275-0.326-0.559-0.504-0.866
				c-0.332-0.629-0.836-1.246-1.343-1.952c-0.29-0.324-0.595-0.663-0.911-1.017c-0.312-0.356-0.703-0.665-1.072-1.02
				c-1.543-1.338-3.568-2.64-6.09-3.408c-2.506-0.739-5.498-1.062-8.57-0.314c-3.062,0.731-6.258,2.208-8.953,4.66
				c-2.73,2.39-4.951,5.73-6.096,9.619c-0.61,1.935-0.843,4.025-0.818,6.139c-0.012,1.069,0.15,2.112,0.289,3.167
				c0.109,0.538,0.251,1.087,0.376,1.635l0.097,0.412l0.025,0.103c0.008,0.042,0.004,0.007,0.022,0.068l0.067,0.196l0.271,0.786
				c0.646,2.133,1.748,4.139,2.964,6.089c1.315,1.894,2.856,3.679,4.671,5.231c1.843,1.503,3.864,2.869,6.115,3.858
				c2.252,0.966,4.647,1.705,7.148,2.022c2.488,0.288,5.092,0.251,7.555-0.165c0.641-0.118,1.305-0.298,1.959-0.444l0.492-0.116
				l0.246-0.058c0.09-0.022,0.018-0.002,0.068-0.02l0.115-0.04l0.93-0.322c0.619-0.213,1.24-0.428,1.865-0.643
				c0.607-0.251,1.2-0.549,1.804-0.821c1.229-0.502,2.343-1.244,3.499-1.911c0.594-0.311,1.094-0.77,1.646-1.148
				c0.529-0.412,1.111-0.761,1.602-1.225c0.996-0.91,2.049-1.765,2.927-2.809c0.446-0.512,0.95-0.976,1.353-1.528l1.234-1.637
				c1.549-2.25,2.93-4.667,3.846-7.29c0.547-1.278,0.84-2.644,1.218-3.985c0.171-0.675,0.245-1.374,0.373-2.06
				c0.122-0.688,0.246-1.377,0.265-2.079l0.146-2.098c0.001-0.702-0.04-1.404-0.055-2.107l-0.03-1.055l-0.132-1.023l-0.263-2.045
				l-0.508-2.17l-0.256-1.087l-0.328-0.939c-0.498-1.343-0.854-2.744-1.525-4.021c-2.321-5.255-5.828-10.011-10.197-13.811
				c-4.344-3.838-9.627-6.582-15.195-8.127l-2.094-0.567l-2.139-0.357c-1.416-0.302-2.862-0.354-4.301-0.455l-1.078-0.076
				l-1.08,0.033l-2.157,0.065c-0.731-0.014-1.403,0.139-2.101,0.214l-2.071,0.264c-0.708,0.115-1.47,0.332-2.202,0.493l-2.094,0.5
				c-1.369,0.474-2.735,0.946-4.1,1.418c-2.658,1.113-5.286,2.298-7.699,3.84c-9.748,5.959-17.189,15.242-20.637,25.53
				c-1.773,5.119-2.658,10.421-2.736,15.617c0.039,1.298,0.078,2.59,0.118,3.874c0.102,1.26,0.313,2.465,0.452,3.688
				c0.084,1.175,0.453,2.523,0.754,3.818c0.152,0.65,0.305,1.298,0.457,1.943l0.114,0.484l0.028,0.121
				c0.044,0.181-0.029-0.111-0.008-0.041l0.072,0.225l0.285,0.897c1.503,4.78,3.494,9.26,5.934,13.285
				c2.434,4.029,5.243,7.636,8.265,10.784c6.049,6.312,12.921,10.729,19.433,13.561c6.53,2.837,12.67,4.2,17.783,4.741
				c5.129,0.539,9.236,0.335,12.08,0.075c1.424-0.141,2.539-0.267,3.322-0.411c0.785-0.121,1.244-0.192,1.357-0.209
				c3.369-0.546,7.055,0.35,7.588,2.625c0.523,2.222-1.885,4.912-6.233,5.649c-0.13,0.018-0.653,0.09-1.55,0.214
				c-0.895,0.144-2.167,0.266-3.791,0.393c-3.242,0.232-7.922,0.365-13.723-0.368c-5.785-0.735-12.693-2.423-19.969-5.773
				c-7.255-3.342-14.848-8.458-21.451-15.649c-3.299-3.586-6.344-7.675-8.951-12.212c-2.615-4.533-4.719-9.547-6.262-14.856
				l-0.293-0.997l-0.072-0.25c-0.006-0.008-0.1-0.381-0.072-0.28l-0.025-0.122l-0.104-0.486c-0.139-0.649-0.277-1.3-0.416-1.953
				c-0.271-1.312-0.6-2.568-0.723-4.096c-0.152-1.463-0.367-2.949-0.451-4.414c-0.014-1.449-0.027-2.907-0.041-4.372
				c0.208-5.853,1.334-11.784,3.44-17.459c4.108-11.403,12.591-21.516,23.482-27.851c2.698-1.636,5.614-2.887,8.558-4.038
				c1.505-0.484,3.012-0.968,4.521-1.454c-0.055,0.01,0.234-0.066,0.256-0.068l0.139-0.03l0.278-0.059l0.557-0.119l1.112-0.237
				c0.754-0.149,1.461-0.337,2.254-0.454l2.456-0.28c0.815-0.075,1.646-0.223,2.442-0.195l2.407-0.023l1.204-0.006l1.199,0.106
				c1.6,0.143,3.203,0.247,4.771,0.608l2.362,0.453l2.308,0.674c6.128,1.845,11.869,5.001,16.545,9.307
				c4.701,4.269,8.416,9.551,10.814,15.314c0.689,1.405,1.057,2.93,1.561,4.396l0.178,0.554l0.088,0.277l0.045,0.138
				c-0.004-0.026,0.055,0.19,0.058,0.218l0.233,1.093l0.461,2.185l0.27,2.373c0.041,0.395,0.092,0.791,0.123,1.182l0.012,1.163
				c0.002,0.774,0.025,1.547,0.007,2.317l-0.206,2.3c-0.041,0.769-0.189,1.521-0.34,2.272c-0.154,0.749-0.258,1.509-0.459,2.243
				c-0.438,1.46-0.799,2.938-1.42,4.322c-1.062,2.833-2.615,5.43-4.348,7.829l-1.376,1.743c-0.45,0.585-1.002,1.081-1.497,1.623
				c-0.975,1.103-2.129,2.01-3.225,2.963c-0.541,0.486-1.174,0.854-1.754,1.285c-0.604,0.396-1.154,0.871-1.799,1.195
				c-1.258,0.695-2.473,1.458-3.801,1.973c-0.654,0.278-1.295,0.581-1.953,0.835c-0.67,0.216-1.34,0.432-2.008,0.647l-0.998,0.32
				l-0.125,0.04c-0.03,0.012-0.184,0.047-0.178,0.044l-0.248,0.053l-0.494,0.105c-0.666,0.134-1.307,0.295-1.986,0.406
				c-2.842,0.428-5.578,0.387-8.271,0.022c-2.686-0.4-5.241-1.246-7.624-2.334c-2.383-1.11-4.508-2.61-6.432-4.252
				c-1.891-1.69-3.486-3.619-4.83-5.652c-1.245-2.089-2.355-4.229-2.988-6.483l-0.266-0.832l-0.066-0.207
				c-0.004-0.006-0.033-0.107-0.037-0.135l-0.022-0.104l-0.088-0.414c-0.114-0.554-0.243-1.095-0.343-1.651
				c-0.137-1.158-0.281-2.303-0.246-3.421c0.021-2.235,0.318-4.431,1.002-6.449c1.289-4.057,3.686-7.483,6.569-9.902
				c2.853-2.482,6.179-3.931,9.341-4.614c3.195-0.704,6.26-0.303,8.801,0.508c2.559,0.84,4.587,2.208,6.119,3.596
				c0.367,0.367,0.752,0.687,1.062,1.054c0.312,0.364,0.611,0.712,0.897,1.045c0.498,0.724,0.988,1.354,1.309,1.995
				c0.174,0.312,0.346,0.601,0.488,0.88c0.125,0.288,0.244,0.557,0.352,0.806c0.109,0.249,0.209,0.478,0.301,0.687
				c0.07,0.217,0.133,0.413,0.189,0.588C141.623,203.638,141.738,203.999,141.738,203.999z"/>
		</g>
	</g>
</g>
<g>
	<g>
		<g>
			<path fill="#17C7D2" d="M110.928,315.048c0,0,0.002-0.177,0.004-0.521c0.016-0.344-0.031-0.858,0.066-1.521
				c0.112-1.319,0.477-3.302,1.684-5.52c0.577-1.119,1.414-2.256,2.48-3.346c1.067-1.086,2.396-2.12,4.002-2.892
				c0.803-0.38,1.658-0.725,2.574-0.974c0.912-0.252,1.928-0.434,2.873-0.498c2.016-0.125,4.125,0.034,6.268,0.614
				c4.262,1.138,8.514,4.074,11.186,8.506c1.33,2.212,2.236,4.752,2.572,7.515c0.305,2.642,0.169,5.475-0.523,8.211
				c-1.322,5.493-4.771,10.713-9.749,14.141c-2.481,1.721-5.298,2.988-8.323,3.697c-0.773,0.146-1.595,0.326-2.342,0.429
				l-2.228,0.206c-1.521-0.026-3.056,0.047-4.575-0.185c-1.533-0.106-3.023-0.491-4.529-0.807c-1.461-0.469-2.947-0.886-4.337-1.551
				c-2.812-1.229-5.47-2.85-7.757-4.882c-4.648-3.976-7.992-9.344-9.572-15.041c-3.041-11.584,0.272-22.937,5.672-30.697
				c2.699-3.916,5.895-6.994,9.022-9.343c1.63-1.08,3.128-2.16,4.67-2.904c0.761-0.387,1.464-0.822,2.192-1.118
				c0.729-0.301,1.423-0.589,2.084-0.863c0.66-0.283,1.293-0.53,1.914-0.696c0.615-0.186,1.193-0.36,1.733-0.523
				c1.054-0.355,2.077-0.53,2.904-0.687c1.653-0.314,2.622-0.486,2.687-0.462c1.822-0.13,3.436,1.637,3.602,3.945
				c0.165,2.309-1.18,4.287-3.004,4.417c-0.17-0.019-0.809,0.11-1.975,0.285c-0.581,0.089-1.283,0.154-2.16,0.417
				c-0.434,0.109-0.898,0.227-1.393,0.351c-0.501,0.102-1.01,0.279-1.541,0.484c-0.537,0.193-1.101,0.396-1.691,0.608
				c-0.594,0.203-1.162,0.539-1.786,0.816c-1.269,0.527-2.492,1.357-3.856,2.153c-2.599,1.783-5.311,4.156-7.666,7.257
				c-2.355,3.089-4.338,6.904-5.463,11.243c-0.136,0.543-0.301,1.084-0.419,1.64c-0.087,0.562-0.175,1.127-0.263,1.696
				c-0.072,0.57-0.221,1.139-0.236,1.723c-0.031,0.583-0.062,1.17-0.094,1.76l-0.051,0.89l-0.014,0.223l-0.004,0.056
				c0,0.052-0.015-0.251-0.007-0.094l0.007,0.122l0.023,0.489c0.031,0.651,0.062,1.308,0.095,1.967
				c0.04,0.644,0.165,1.125,0.235,1.702l0.121,0.838c0.045,0.282,0.141,0.579,0.209,0.869c1.068,4.691,3.604,9.265,7.352,12.78
				c1.834,1.799,4.017,3.264,6.354,4.419c1.152,0.626,2.402,1.025,3.631,1.494c1.273,0.317,2.535,0.723,3.852,0.866
				c5.266,0.947,10.637-0.05,15.045-2.834c4.414-2.745,7.668-7.157,9.066-11.978c0.729-2.413,0.974-4.901,0.803-7.366
				c-0.18-2.346-0.871-4.683-1.975-6.712c-2.211-4.086-5.963-6.979-9.875-8.218c-1.951-0.63-3.957-0.871-5.816-0.843
				c-0.996,0.024-1.857,0.149-2.727,0.343c-0.873,0.193-1.693,0.481-2.47,0.806c-1.554,0.66-2.87,1.587-3.944,2.585
				c-1.074,1-1.939,2.065-2.55,3.129c-1.278,2.106-1.733,4.047-1.903,5.353c-0.127,0.653-0.105,1.167-0.136,1.509
				C110.938,314.871,110.928,315.048,110.928,315.048z"/>
		</g>
	</g>
</g>
<circle fill="#17C7D2" cx="132.736" cy="204.27" r="10.868"/>
<circle fill="#17C7D2" cx="121.869" cy="312.996" r="10.868"/>
<circle fill="#17C7D2" cx="429.562" cy="487.756" r="10.868"/>
<path fill="#17C7D2" d="M373.984,341.413c0.27,5.997-4.375,11.074-10.371,11.344c-5.998,0.269-11.074-4.377-11.342-10.373
	c-0.271-5.996,4.375-11.074,10.371-11.342C368.641,330.773,373.717,335.417,373.984,341.413z"/>
<path fill="#17C7D2" d="M475.402,328.991c0.575,12.825-9.357,23.686-22.183,24.26c-12.826,0.572-23.686-9.359-24.257-22.185
	c-0.576-12.824,9.359-23.686,22.182-24.26C463.969,306.235,474.828,316.167,475.402,328.991z"/>
<g>
	<g>
		<g>
			<path fill="#17C7D2" d="M350.295,384.942c0,0-0.691-0.567-1.986-1.632c-1.34-1.014-3.104-2.737-5.186-5.043
				c-0.491-0.604-1.009-1.24-1.551-1.908c-0.266-0.339-0.563-0.664-0.818-1.034c-0.246-0.375-0.5-0.759-0.758-1.151
				c-0.51-0.786-1.064-1.588-1.596-2.446c-0.471-0.894-0.959-1.818-1.463-2.774c-1.883-3.878-3.49-8.528-4.187-13.772
				c-0.703-5.229-0.479-11.041,1.074-16.848c1.536-5.805,4.418-11.562,8.586-16.573c0.271-0.317,0.528-0.667,0.807-0.96l0.849-0.833
				c0.578-0.547,1.095-1.138,1.721-1.656c0.633-0.513,1.268-1.026,1.904-1.544c0.617-0.54,1.354-0.925,2.026-1.398l1.031-0.682
				c0.349-0.221,0.729-0.392,1.09-0.59c0.738-0.374,1.453-0.795,2.211-1.134c0.769-0.312,1.539-0.627,2.312-0.941
				c0.766-0.33,1.592-0.501,2.384-0.762c6.414-1.897,13.464-1.724,19.825,0.372c3.156,1.114,6.188,2.585,8.881,4.548
				c2.795,2.026,4.869,4.246,6.648,6.957c3.491,5.35,4.749,11.872,3.823,17.781c-0.434,2.965-1.449,5.766-2.846,8.258
				c-0.306,0.648-0.726,1.229-1.117,1.816l-0.584,0.881l-0.071,0.11c-0.109,0.146,0.106-0.14,0.066-0.087l-0.048,0.058l-0.189,0.231
				l-0.38,0.463L392,353.566c-0.246,0.283-0.451,0.434-0.672,0.658l-0.637,0.628c-0.236,0.207-0.508,0.409-0.758,0.614
				c-4.052,3.306-9.152,4.573-13.601,4.153c-2.231-0.202-4.321-0.771-6.164-1.622c-0.897-0.475-1.793-0.897-2.569-1.475
				l-0.599-0.396l-0.147-0.097c-0.166-0.124,0.188,0.142,0.135,0.101l-0.041-0.034l-0.084-0.068l-0.334-0.274l-0.662-0.542
				l-0.316-0.264l-0.182-0.203c-0.24-0.284-0.484-0.478-0.738-0.795c-0.256-0.319-0.506-0.633-0.754-0.941
				c-0.215-0.331-0.426-0.656-0.633-0.976c-0.205-0.32-0.35-0.668-0.527-0.986c-0.622-1.32-1.061-2.604-1.23-3.813
				c-0.426-2.41-0.069-4.352,0.225-5.638c0.352-1.289,0.696-1.968,0.723-2.071c0.123-0.408,0.233-0.801,0.174-1.257
				c-0.062-0.458-0.188-0.931-0.377-1.41c-0.408-0.967-1.151-2.028-2.224-2.795c-1.069-0.766-2.313-1.039-3.53-0.73
				c-0.615,0.146-1.197,0.445-1.678,0.896c-0.479,0.449-0.958,0.995-1.195,1.686c-0.047,0.174-0.593,1.367-1.09,3.588
				c-0.435,2.209-0.85,5.511,0.012,9.482c0.389,1.984,1.172,4.096,2.307,6.219c0.307,0.519,0.588,1.065,0.941,1.583
				c0.365,0.508,0.734,1.025,1.112,1.553c0.416,0.497,0.854,0.99,1.296,1.49c0.448,0.501,1.049,1.019,1.59,1.521l0.424,0.379
				l0.342,0.263c0.227,0.17,0.453,0.341,0.682,0.514l0.346,0.26l0.354,0.262l0.22,0.136c0.295,0.181,0.59,0.363,0.889,0.546
				c1.168,0.77,2.486,1.362,3.824,1.972c2.727,1.123,5.778,1.823,8.977,1.974c6.371,0.327,13.434-1.788,18.861-6.607
				c0.338-0.303,0.678-0.587,1.014-0.911l0.996-1.064c0.313-0.351,0.69-0.738,0.949-1.065l0.717-0.951l0.358-0.478l0.183-0.239
				l0.045-0.06c-0.008,0.013,0.231-0.317,0.149-0.213l0.091-0.144l0.706-1.154c0.472-0.771,0.959-1.537,1.324-2.378
				c1.647-3.256,2.775-6.872,3.17-10.623c0.855-7.484-1.073-15.465-5.61-21.819c-4.594-6.543-11.471-10.675-18.801-12.875
				c-7.381-2.098-15.33-1.926-22.385,0.48c-0.871,0.324-1.774,0.562-2.613,0.959c-0.84,0.385-1.68,0.77-2.519,1.151
				c-0.821,0.411-1.6,0.907-2.396,1.354c-0.391,0.236-0.799,0.444-1.174,0.703l-1.108,0.796c-0.722,0.551-1.504,1.015-2.162,1.633
				c-0.675,0.596-1.349,1.188-2.019,1.779c-0.662,0.601-1.252,1.313-1.873,1.962l-0.914,0.994c-0.286,0.333-0.516,0.672-0.776,1.007
				c-4.207,5.512-7.008,11.763-8.362,17.919c-1.378,6.168-1.35,12.224-0.397,17.595c0.944,5.388,2.796,10.082,4.879,13.953
				c0.554,0.951,1.089,1.872,1.604,2.761c0.575,0.851,1.174,1.643,1.725,2.417c0.277,0.385,0.549,0.762,0.816,1.131
				c0.271,0.364,0.588,0.682,0.868,1.013c0.576,0.651,1.125,1.272,1.646,1.862c2.205,2.246,4.048,3.896,5.424,4.853
				C349.58,384.404,350.295,384.942,350.295,384.942z"/>
		</g>
	</g>
</g>
<g>
	<g>
		<g>
			<path fill="#17C7D2" d="M349.305,383.523c0,0,0.414,0.396,1.217,1.165c0.814,0.757,1.972,1.936,3.574,3.37
				c3.219,2.851,8.065,6.937,14.842,11.28c0.853,0.536,1.726,1.086,2.621,1.65s1.861,1.063,2.824,1.619
				c0.975,0.534,1.949,1.123,2.984,1.65c1.042,0.521,2.105,1.05,3.191,1.591c1.073,0.562,2.207,1.063,3.366,1.562
				c1.16,0.499,2.326,1.042,3.541,1.532c2.451,0.927,4.972,1.946,7.658,2.765c10.646,3.521,23.298,5.773,37.149,5.598
				c13.826-0.175,28.876-2.939,43.516-9.205c7.312-3.121,14.507-7.102,21.328-11.939l1.288-0.898l1.248-0.959
				c0.832-0.641,1.669-1.283,2.506-1.928c1.67-1.296,3.242-2.729,4.881-4.098c1.59-1.438,3.104-2.911,4.711-4.419
				c0.738-0.772,1.479-1.547,2.223-2.323c0.755-0.758,1.476-1.574,2.187-2.413c5.785-6.565,10.651-14.067,14.43-22.233
				c1.894-4.081,3.428-8.349,4.734-12.705c1.297-4.363,2.19-8.862,2.844-13.408c2.516-18.207-0.545-37.503-9.002-54.263
				c-4.199-8.384-9.711-16.117-16.212-22.843c-0.419-0.43-0.765-0.839-1.243-1.286l-1.246-1.191l-1.246-1.19l-1.344-1.165
				c-0.895-0.784-1.793-1.556-2.729-2.256c-0.926-0.719-1.836-1.458-2.809-2.111c-3.809-2.726-7.867-5.085-12.096-7.04
				c-8.455-3.924-17.601-6.165-26.732-6.729c-9.139-0.57-18.268,0.546-26.799,3.153c-8.545,2.58-16.447,6.734-23.309,11.93
				c-3.435,2.583-6.634,5.464-9.475,8.521c-2.925,3.159-5.431,6.521-7.566,10.083c-4.273,7.116-6.91,14.927-8.003,22.674
				c-1.097,7.754-0.678,15.452,1,22.546c1.672,7.101,4.537,13.604,8.162,19.211c1.824,2.796,3.826,5.375,5.931,7.743
				c0.544,0.575,1.084,1.147,1.619,1.715l0.401,0.425c-0.024-0.022,0.148,0.15,0.168,0.167l0.103,0.095l0.203,0.191l0.807,0.759
				c0.562,0.506,1.014,1.001,1.652,1.505c0.61,0.5,1.217,0.997,1.815,1.49c9.702,7.527,20.418,10.22,29.217,10.477
				c4.418,0.123,8.367-0.426,11.775-1.085c3.387-0.783,6.244-1.698,8.51-2.662c1.123-0.5,2.152-0.897,3.008-1.338
				c0.85-0.453,1.576-0.842,2.182-1.164c1.222-0.618,1.867-1.101,2.038-1.198c1.315-0.864,2.554-1.718,3.502-2.714
				c0.967-0.971,1.834-1.835,2.367-2.76c1.131-1.787,1.483-3.148,0.891-3.736c-0.598-0.589-2.004-0.325-3.723,0.515
				c-0.83,0.456-1.882,0.894-2.91,1.528c-1.015,0.658-2.193,1.264-3.347,2.025c-0.149,0.084-0.709,0.52-1.779,1.066
				c-0.526,0.288-1.163,0.636-1.905,1.042c-0.746,0.395-1.647,0.746-2.631,1.198c-1.982,0.868-4.488,1.69-7.465,2.418
				c-3,0.603-6.479,1.13-10.388,1.061c-3.895-0.09-8.198-0.678-12.647-2.098c-0.549-0.184-1.14-0.325-1.672-0.544
				c-0.533-0.214-1.072-0.432-1.617-0.65c-0.555-0.239-1.077-0.387-1.674-0.701c-0.588-0.294-1.181-0.591-1.777-0.891
				c-2.205-1.068-4.442-2.545-6.559-4.125c-8.521-6.575-16.09-17.154-19.277-30.154c-1.604-6.484-2.063-13.551-1.129-20.695
				c0.935-7.138,3.285-14.357,7.162-20.964c1.928-3.298,4.251-6.467,6.85-9.336c2.695-2.96,5.644-5.663,8.863-8.14
				c6.407-4.958,13.811-8.953,21.861-11.471c8.032-2.546,16.666-3.695,25.342-3.243c8.669,0.446,17.381,2.482,25.465,6.135
				c4.043,1.819,7.932,4.026,11.59,6.588c0.937,0.612,1.812,1.31,2.701,1.986c0.906,0.665,1.754,1.378,2.592,2.099l1.271,1.073
				l1.256,1.174l1.258,1.179c0.365,0.33,0.775,0.792,1.161,1.181c6.341,6.427,11.739,13.836,15.882,21.903
				c8.348,16.121,11.527,34.816,9.26,52.567c-0.589,4.432-1.414,8.824-2.635,13.09c-1.229,4.259-2.685,8.438-4.492,12.44
				c-3.596,7.999-8.304,15.416-13.863,21.857l-1.028,1.216c-0.354,0.399-0.732,0.786-1.097,1.18
				c-0.733,0.784-1.469,1.564-2.198,2.345c-1.5,1.435-3.023,2.947-4.562,4.365c-1.6,1.363-3.133,2.792-4.764,4.084
				c-0.82,0.643-1.636,1.285-2.45,1.924l-1.22,0.959l-1.262,0.897c-6.674,4.837-13.729,8.837-20.921,11.995
				c-14.395,6.337-29.264,9.233-42.975,9.549c-13.734,0.314-26.332-1.79-36.963-5.186c-10.69-3.285-19.408-7.838-26.218-12.057
				c-6.805-4.264-11.688-8.296-14.936-11.109c-1.615-1.418-2.785-2.585-3.605-3.333
				C349.723,383.915,349.305,383.523,349.305,383.523z"/>
		</g>
	</g>
</g>
<circle fill="#17C7D2" cx="425.341" cy="365.864" r="6.966"/>
<circle fill="#17C7D2" cx="448.517" cy="367.137" r="5.716"/>
<g>
	<g>
		<g>
			<path fill="#17C7D2" d="M444.456,415.393c0,0,1.573,0.671,4.525,1.928c2.888,1.387,7.152,3.402,12.194,6.643
				c5.044,3.218,10.848,7.671,16.704,13.602c2.916,2.973,5.865,6.297,8.633,10.062c2.779,3.751,5.509,7.851,7.9,12.383
				c4.824,9.027,8.679,19.586,10.543,31.17c1.883,11.565,1.736,24.132-0.968,36.624c-0.376,1.554-0.729,3.117-1.126,4.677
				c-0.445,1.533-0.896,3.073-1.347,4.619l-0.801,2.342c-0.262,0.789-0.535,1.564-0.846,2.299c-0.592,1.496-1.183,2.997-1.896,4.477
				c-1.323,2.992-2.946,5.862-4.641,8.697c-1.793,2.774-3.643,5.539-5.786,8.096c-4.165,5.207-9.129,9.812-14.53,13.833
				c-5.47,3.93-11.407,7.279-17.729,9.684c-6.291,2.479-12.922,4.035-19.604,4.771c-3.346,0.303-6.7,0.509-10.045,0.363
				c-1.674-0.001-3.336-0.19-4.998-0.299c-0.83-0.073-1.653-0.202-2.479-0.3c-0.824-0.107-1.652-0.19-2.467-0.356
				c-1.638-0.287-3.271-0.567-4.875-0.978c-1.619-0.338-3.201-0.817-4.785-1.271l-0.592-0.17l-0.148-0.042
				c-0.064-0.019,0.032,0.012-0.08-0.026l-0.303-0.104l-1.211-0.415c-0.81-0.275-1.628-0.548-2.334-0.854
				c-0.734-0.305-1.467-0.572-2.199-0.901l-2.199-1.019c-2.889-1.429-5.65-3.067-8.254-4.896c-2.604-1.831-5.006-3.896-7.248-6.081
				c-8.965-8.796-14.689-20.111-16.87-31.423c-2.21-11.315-1.021-22.658,2.496-32.07c0.88-2.702,2.009-4.61,2.993-6.706
				c1.285-2.021,2.416-4.08,3.893-5.837c1.308-1.885,2.943-3.424,4.395-5.042c0.812-0.722,1.615-1.435,2.408-2.138
				c0.4-0.345,0.773-0.718,1.189-1.032c0.424-0.307,0.844-0.61,1.26-0.913c0.842-0.593,1.633-1.229,2.476-1.768
				c0.858-0.508,1.706-1.008,2.54-1.498c0.421-0.238,0.816-0.515,1.248-0.717c0.431-0.2,0.857-0.399,1.283-0.598
				c0.847-0.397,1.679-0.79,2.494-1.175c0.852-0.303,1.687-0.602,2.504-0.895c0.826-0.271,1.605-0.635,2.431-0.795
				c0.809-0.201,1.604-0.4,2.381-0.596c0.388-0.099,0.771-0.196,1.15-0.293c0.383-0.077,0.771-0.117,1.147-0.178
				c6.038-1.05,11.094-0.771,14.705-0.128c0.906,0.152,1.742,0.235,2.477,0.404c0.728,0.192,1.376,0.363,1.938,0.514
				c1.125,0.292,1.912,0.497,2.337,0.606c-0.714-0.284-0.064-0.025-0.747-0.297c0.212,0.117,0.416,0.231,0.615,0.343
				c0.229,0.139,0.453,0.271,0.668,0.4c0.432,0.276,0.838,0.536,1.205,0.8c0.742,0.514,1.354,0.994,1.861,1.419
				c0.521,0.415,0.901,0.806,1.255,1.109c0.318,0.324,0.579,0.587,0.79,0.801c0.772,0.882,0.839,0.957,0.868,0.991
				c1.154,1.398,2.271,2.416,3.457,3.227c0.642,0.395,1.203,0.746,1.853,0.984c0.641,0.235,1.312,0.359,1.963,0.256
				c0.651-0.103,1.219-0.437,1.67-1.028c0.445-0.586,0.818-1.454,0.875-2.467c0.227-2.061-0.611-4.829-2.422-6.998
				c-0.045-0.051-0.146-0.164-1.318-1.497c-0.307-0.311-0.684-0.69-1.147-1.16c-0.484-0.431-1.043-0.979-1.748-1.546
				c-0.699-0.582-1.523-1.226-2.516-1.912c-0.49-0.35-1.033-0.697-1.617-1.068c-0.302-0.181-0.611-0.365-0.932-0.558
				c-0.346-0.197-0.628-0.36-1.122-0.614l-0.436-0.224l-0.312-0.073c-0.516-0.123-1.472-0.352-2.838-0.678
				c-0.684-0.16-1.469-0.345-2.354-0.553c-0.891-0.181-1.901-0.273-3-0.432c-4.372-0.66-10.485-0.872-17.687,0.546
				c-0.45,0.083-0.911,0.146-1.366,0.25c-0.451,0.122-0.908,0.246-1.37,0.371c-0.923,0.254-1.865,0.513-2.826,0.775
				c-0.974,0.226-1.9,0.659-2.875,1.006c-0.966,0.371-1.948,0.75-2.949,1.137c-0.963,0.475-1.94,0.958-2.937,1.448
				c-0.498,0.247-0.998,0.497-1.504,0.748c-0.502,0.253-0.969,0.582-1.463,0.874c-0.972,0.604-1.959,1.219-2.963,1.842
				c-0.979,0.657-1.906,1.421-2.881,2.146c-0.482,0.368-0.967,0.739-1.457,1.113c-0.48,0.384-0.918,0.827-1.383,1.242
				c-0.912,0.85-1.838,1.711-2.773,2.583c-1.688,1.926-3.543,3.795-5.045,6.028c-1.674,2.106-2.975,4.533-4.404,6.938
				c-1.215,2.604-2.592,5.389-3.321,7.857c-0.222,0.639-0.443,1.279-0.667,1.924l-0.083,0.241l-0.043,0.12
				c-0.138,0.409-0.058,0.188-0.099,0.314l-0.14,0.523l-0.28,1.055c-0.399,1.399-0.697,2.84-1,4.29
				c-0.307,1.448-0.51,2.933-0.738,4.42c-0.155,1.498-0.368,3.002-0.43,4.53c-0.414,6.104,0.047,12.443,1.399,18.744
				c2.706,12.589,9.341,25.009,19.461,34.528c2.53,2.367,5.235,4.589,8.149,6.55c2.914,1.957,5.994,3.699,9.205,5.202l2.438,1.066
				c0.822,0.348,1.691,0.65,2.537,0.977c0.867,0.345,1.67,0.591,2.479,0.849l1.22,0.391l0.305,0.098l0.225,0.068l0.16,0.042
				l0.644,0.17c1.71,0.454,3.418,0.93,5.166,1.26c1.729,0.4,3.489,0.668,5.252,0.938c0.877,0.156,1.766,0.23,2.651,0.327
				c0.89,0.086,1.773,0.203,2.664,0.265c1.785,0.082,3.568,0.241,5.359,0.209c3.579,0.077,7.162-0.213,10.723-0.614
				c7.111-0.932,14.121-2.739,20.73-5.502c6.641-2.689,12.84-6.357,18.512-10.616c5.602-4.351,10.708-9.3,14.959-14.845
				c2.188-2.725,4.066-5.657,5.875-8.595c1.711-2.997,3.336-6.026,4.653-9.173c0.704-1.544,1.304-3.151,1.896-4.755
				c0.316-0.803,0.576-1.593,0.818-2.378l0.752-2.356c0.477-1.673,0.871-3.239,1.309-4.854c0.375-1.614,0.705-3.231,1.058-4.836
				c2.514-12.911,2.387-25.794,0.219-37.562c-2.15-11.79-6.299-22.446-11.382-31.498c-2.522-4.545-5.372-8.642-8.262-12.374
				c-2.877-3.748-5.926-7.043-8.928-9.979c-6.031-5.856-11.961-10.211-17.09-13.336c-5.129-3.146-9.445-5.077-12.364-6.404
				C446.043,416.029,444.456,415.393,444.456,415.393z"/>
		</g>
	</g>
</g>
<text transform="matrix(1 0 0 1 120.8828 526.9062)" fill="#17C7D2" font-family="'StoneSerifStd-Semibold'" font-size="55.4316">makeda </text>
<text transform="matrix(1 0 0 1 120.8828 582.3379)" fill="#17C7D2" font-family="'StoneSerifStd-Semibold'" font-size="55.4316">DESIGN</text>
<g id="XMLID_1_">
	<g>
		<path fill="#17C7D2" d="M316.437,348.906c4.375,42.849,38.927,77.719,83.374,81.059c1.591,0.119,3.17,0.2,4.745,0.229l0.638,6.199
			l-106.809,10.934l-1.06-10.385c13.326-1.913,22.089-5.296,22.791-9.231c0.79-3.117,0.312-7.758-0.132-12.133l-6.794-66.336
			L316.437,348.906z"/>
		<path fill="#17C7D2" d="M387.594,250.961c-38.306,8.193-68.282,40.792-71.366,81.841c-0.41,5.459-0.327,10.844,0.209,16.104
			l-3.247,0.334l-3.525-34.455l-0.545,0.057l-53.373,136.565l-7.373,0.761l-74.469-123.495l-0.545,0.057l8.667,84.684
			c0.866,8.462,1.676,16.387,3.47,23.102c1.899,7.812,6.878,10.619,24.147,9.4l1.061,10.377l-63.922,6.547l-1.06-10.385
			c17.428-2.333,21.463-6.056,21.745-14.095c0.121-6.908-0.688-14.833-1.554-23.303L154.67,305.252
			c-9.055-15.635-21.75-23.716-36.502-22.211l-1.061-10.377l77.031-7.883l73.087,118.103l52.569-130.963l67.192-6.879
			L387.594,250.961z"/>
	</g>
	<g>
		<path fill="none" stroke="#17C7D2" stroke-width="0.7746" stroke-miterlimit="10" d="M404.556,430.193
			c-1.575-0.028-3.154-0.109-4.745-0.229c-44.447-3.34-78.999-38.21-83.374-81.059c-0.536-5.26-0.619-10.645-0.209-16.104
			c3.084-41.049,33.061-73.648,71.366-81.841l0.454,4.458c-20.755,2.129-25.301,8.945-23.406,27.52l12.973,126.746
			c0.445,4.367,0.924,9.008,2.32,11.907c1.486,3.709,10.752,5.246,24.191,4.423L404.556,430.193z"/>
	</g>
</g>
</svg>
