<svg xmlns="http://www.w3.org/2000/svg" viewBox="0 0 436.14 436.14"><defs><style>.cls-1{stroke:#fff;stroke-miterlimit:10;}.cls-2{fill:#fff;}</style></defs><title>Asset 8</title><g id="Layer_2" data-name="Layer 2"><g id="Layer_1-2" data-name="Layer 1"><circle class="cls-1" cx="218.07" cy="218.07" r="217.57"/><path class="cls-2" d="M94.54,249.77H82.29L52.09,189.08h21.5l15.65,32.25,15.38-33.06h10.34l15.38,33.06L146,189.08h21.5l-30.21,60.68H125l-15.24-34.56Z"/><path class="cls-2" d="M210.46,249.77H198.22L168,189.08h21.5l15.65,32.25,15.38-33.06h10.34l15.38,33.06,15.65-32.25h21.5l-30.21,60.68H240.94L225.7,215.21Z"/><path class="cls-2" d="M326.38,249.77H314.14l-30.21-60.68h21.5l15.65,32.25,15.38-33.06h10.34l15.38,33.06,15.65-32.25h21.5l-30.21,60.68H356.86l-15.24-34.56Z"/></g></g></svg>