<svg xmlns="http://www.w3.org/2000/svg" viewBox="0 0 436.14 436.14"><defs><style>.cls-1{stroke:#fff;stroke-miterlimit:10;}.cls-2{fill:#fff;}</style></defs><title>Asset 5</title><g id="Layer_2" data-name="Layer 2"><g id="Layer_1-2" data-name="Layer 1"><circle class="cls-1" cx="218.07" cy="218.07" r="217.57"/><path class="cls-2" d="M124.17,126.72c10.8,0,35.4.6,51,15.3,12.9,12.3,14.4,29.1,14.4,37.8,0,7.8-1.2,16.8-6.6,25.5a36.66,36.66,0,0,1-16.8,14.7c9.6,1.5,20.4,6.3,27.6,13.5,6.6,6.6,12.9,18,12.9,35.7,0,20.1-7.8,32.7-15.6,40.5-16.5,15.9-40.5,17.1-52.8,17.1H63V126.72ZM108.57,208h7.5c6.3,0,16.8-.9,23.4-5.7,4.2-3,8.1-9,8.1-17.7s-4.2-14.1-7.8-16.8c-6.6-5.1-15.6-5.1-24-5.1h-7.2Zm0,82.8h11.1c11.7,0,25.8-.3,34.2-8.1,4.2-3.9,6.6-9.6,6.6-16.8,0-8.1-3.3-13.5-6.3-16.2-8.1-7.5-23.7-7.5-33-7.5h-12.6Z"/><path class="cls-2" d="M373.17,267.42h-99.9c0,7.2,2.7,16.8,8.1,22.8,6.6,7.2,15.6,8.4,22.2,8.4,6.3,0,12.9-1.2,17.4-3.9.6-.3,5.7-3.6,9.3-11.1l40.8,4.2c-6,18.9-18,28.8-25.8,33.6-12.9,7.8-27.3,9.9-42.3,9.9-20.1,0-37.8-3.6-53.4-19.2-11.7-11.7-20.1-29.4-20.1-51.6,0-19.2,6.9-39,20.4-52.8,16.2-16.2,36.3-19.2,51.3-19.2s36.6,2.7,53.1,20.1c15.9,16.8,18.9,37.8,18.9,54.3Zm-39.9-25.8c-.3-1.2-2.4-9.6-8.7-15.6-4.8-4.5-11.7-7.5-20.4-7.5-11.1,0-17.7,4.5-21.9,8.7a30,30,0,0,0-7.5,14.4Z"/></g></g></svg>