<svg xmlns="http://www.w3.org/2000/svg" viewBox="0 0 436.14 436.14"><defs><style>.cls-1{stroke:#fff;stroke-miterlimit:10;}.cls-2{fill:#fff;}</style></defs><title>Asset 4</title><g id="Layer_2" data-name="Layer 2"><g id="Layer_1-2" data-name="Layer 1"><circle class="cls-1" cx="218.07" cy="218.07" r="217.57"/><path class="cls-2" d="M139.39,110.82a25.2,25.2,0,1,1-25.2,25.2A25,25,0,0,1,139.39,110.82ZM161,193v133.8h-43.2V193Z"/><path class="cls-2" d="M197.58,193h43.2v15.9c13.2-16.8,28.8-19.5,41.4-19.5,11.7,0,27,2.1,38.4,13.5,12.6,12.6,13.5,28.5,13.5,39.3v84.6h-43.2v-68.7c0-8.7-.3-19.8-7.2-26.7-3.3-3.3-8.7-6-16.5-6-9,0-14.7,3.6-18,7.2-7.2,7.2-8.4,16.8-8.4,25.5v68.7h-43.2Z"/></g></g></svg>