<?xml version="1.0" encoding="utf-8"?>
<!-- Generator: Adobe Illustrator 20.1.0, SVG Export Plug-In . SVG Version: 6.00 Build 0)  -->
<svg version="1.1" id="Layer_1" xmlns="http://www.w3.org/2000/svg" xmlns:xlink="http://www.w3.org/1999/xlink" x="0px" y="0px"
	 viewBox="0 0 612 792" style="enable-background:new 0 0 612 792;" xml:space="preserve">
<style type="text/css">
	.st0{display:none;}
	.st1{fill:none;stroke:#000000;stroke-width:5;stroke-miterlimit:10;}
</style>
<g id="Layer_1_1_" class="st0">
	
		<image style="display:inline;overflow:visible;enable-background:new    ;" width="1536" height="2048" xlink:href="C3A7580E75AFD2E5.png"  transform="matrix(0.5841 0 0 0.5841 0 67.7864)">
	</image>
</g>
<g id="Layer_2">
	<g>
		<path class="st1" d="M426.5,663.3c0,3.8-3.2,7-7,7H129.2c-3.8,0-7-3.2-7-7V373c0-3.9,3.2-7,7-7h290.3c3.8,0,7,3.1,7,7V663.3z"/>
	</g>
	<g>
		<path class="st1" d="M431.2,360.7c-2.5,2.9-7.8,5.3-11.6,5.3H129.2c-3.8,0-4.9-2.4-2.4-5.3L256,214.3c2.5-2.9,7.8-5.3,11.6-5.3
			H558c3.8,0,4.9,2.4,2.4,5.3L431.2,360.7z"/>
	</g>
	<g>
		<path class="st1" d="M565,511.2c0,3.9-2.1,9.3-4.7,12.2l-129,141.8c-2.6,2.8-4.7,2-4.7-1.8V373c0-3.9,2.1-9.3,4.7-12.2l129-141.8
			c2.6-2.8,4.7-2,4.7,1.8V511.2z"/>
	</g>
	<g>
		<path d="M426.5,469c0,3.9-3.2,7-7,7H229c-3.9,0-7-3.1-7-7v-19.9c0-3.8,3.1-7,7-7h190.5c3.8,0,7,3.2,7,7V469z"/>
	</g>
	<g>
		<path d="M426.5,579c0,3.8-3.2,7-7,7H229c-3.9,0-7-3.2-7-7v-19.9c0-3.9,3.1-7,7-7h190.5c3.8,0,7,3.1,7,7V579z"/>
	</g>
	<g>
		<path d="M565,337.8c0,5.3-3.2,12.8-7.3,16.6L433.8,470.5c-4,3.8-7.3,2.5-7.3-2.9v-27.7c0-5.3,3.2-12.8,7.3-16.6l123.8-116.1
			c4-3.8,7.3-2.5,7.3,2.9V337.8z"/>
	</g>
	<g>
		<path d="M565,440.8c0,5.6-3.2,13.5-7.3,17.4L433.8,580.4c-4,4-7.3,2.6-7.3-3.1v-29.2c0-5.7,3.2-13.5,7.3-17.4l123.9-122.1
			c4-4,7.3-2.6,7.3,3.1V440.8z"/>
	</g>
</g>
</svg>
