<svg xmlns="http://www.w3.org/2000/svg" viewBox="0 0 436.14 436.14"><defs><style>.cls-1{stroke:#fff;stroke-miterlimit:10;}.cls-2{fill:#fff;}</style></defs><title>Asset 6</title><g id="Layer_2" data-name="Layer 2"><g id="Layer_1-2" data-name="Layer 1"><circle class="cls-1" cx="218.07" cy="218.07" r="217.57"/><path class="cls-2" d="M228.49,126.72c17.4,0,36.6,2.4,52.5,16.5,17.1,15,19.5,34.8,19.5,48.6,0,25.2-9.6,39.3-17.1,47.1-15.9,16.2-36.9,17.7-51,17.7h-28.2v70.2H158V126.72Zm-24.3,92.1h16.5c6.3,0,17.4-.3,24.9-7.5,4.2-4.2,7.5-11.1,7.5-19.8,0-8.4-3-15.3-7.5-19.5-6.9-6.6-16.8-7.5-25.8-7.5h-15.6Z"/></g></g></svg>