<?xml version="1.0" encoding="utf-8"?>
<!-- Generator: Adobe Illustrator 21.0.0, SVG Export Plug-In . SVG Version: 6.00 Build 0)  -->
<svg version="1.1" id="Layer_1" xmlns="http://www.w3.org/2000/svg" xmlns:xlink="http://www.w3.org/1999/xlink" x="0px" y="0px"
	 viewBox="0 0 612 612" style="enable-background:new 0 0 612 612;" xml:space="preserve">
<style type="text/css">
	.st0{stroke:#FFFFFF;stroke-miterlimit:10;}
	.st1{fill:#FFFFFF;}
	.st2{fill:none;stroke:#FFFFFF;stroke-width:20;stroke-miterlimit:10;}
</style>
<g>
	<circle class="st0" cx="312.4" cy="306" r="217.6"/>
	<path class="st1" d="M218.5,214.6c10.8,0,35.4,0.6,51,15.3c12.9,12.3,14.4,29.1,14.4,37.8c0,7.8-1.2,16.8-6.6,25.5
		c-5.1,8.4-12,12.6-16.8,14.7c9.6,1.5,20.4,6.3,27.6,13.5c6.6,6.6,12.9,18,12.9,35.7c0,20.1-7.8,32.7-15.6,40.5
		c-16.5,15.9-40.5,17.1-52.8,17.1h-75.3V214.6H218.5z M202.9,295.9h7.5c6.3,0,16.8-0.9,23.4-5.7c4.2-3,8.1-9,8.1-17.7
		s-4.2-14.1-7.8-16.8c-6.6-5.1-15.6-5.1-24-5.1h-7.2V295.9z M202.9,378.7H214c11.7,0,25.8-0.3,34.2-8.1c4.2-3.9,6.6-9.6,6.6-16.8
		c0-8.1-3.3-13.5-6.3-16.2c-8.1-7.5-23.7-7.5-33-7.5h-12.6L202.9,378.7L202.9,378.7z"/>
	<path class="st1" d="M467.5,355.3h-99.9c0,7.2,2.7,16.8,8.1,22.8c6.6,7.2,15.6,8.4,22.2,8.4c6.3,0,12.9-1.2,17.4-3.9
		c0.6-0.3,5.7-3.6,9.3-11.1l40.8,4.2c-6,18.9-18,28.8-25.8,33.6c-12.9,7.8-27.3,9.9-42.3,9.9c-20.1,0-37.8-3.6-53.4-19.2
		c-11.7-11.7-20.1-29.4-20.1-51.6c0-19.2,6.9-39,20.4-52.8c16.2-16.2,36.3-19.2,51.3-19.2s36.6,2.7,53.1,20.1
		c15.9,16.8,18.9,37.8,18.9,54.3V355.3z M427.6,329.5c-0.3-1.2-2.4-9.6-8.7-15.6c-4.8-4.5-11.7-7.5-20.4-7.5
		c-11.1,0-17.7,4.5-21.9,8.7c-3.3,3.6-6.3,8.4-7.5,14.4H427.6z"/>
</g>
</svg>
