<?xml version="1.0" encoding="utf-8"?>
<!-- Generator: Adobe Illustrator 21.0.0, SVG Export Plug-In . SVG Version: 6.00 Build 0)  -->
<svg version="1.1" id="Layer_1" xmlns="http://www.w3.org/2000/svg" xmlns:xlink="http://www.w3.org/1999/xlink" x="0px" y="0px"
	 viewBox="0 0 612 612" style="enable-background:new 0 0 612 612;" xml:space="preserve">
<style type="text/css">
	.st0{stroke:#FFFFFF;stroke-miterlimit:10;}
	.st1{fill:#FFFFFF;}
	.st2{fill:none;stroke:#FFFFFF;stroke-width:20;stroke-miterlimit:10;}
</style>
<g>
	<circle class="st0" cx="312.4" cy="306" r="217.6"/>
	<path class="st1" d="M322.8,214.6c17.4,0,36.6,2.4,52.5,16.5c17.1,15,19.5,34.8,19.5,48.6c0,25.2-9.6,39.3-17.1,47.1
		c-15.9,16.2-36.9,17.7-51,17.7h-28.2v70.2h-46.2V214.6H322.8z M298.5,306.7H315c6.3,0,17.4-0.3,24.9-7.5c4.2-4.2,7.5-11.1,7.5-19.8
		c0-8.4-3-15.3-7.5-19.5c-6.9-6.6-16.8-7.5-25.8-7.5h-15.6L298.5,306.7L298.5,306.7z"/>
</g>
</svg>
