<?xml version="1.0" encoding="utf-8"?>
<!-- Generator: Adobe Illustrator 21.0.0, SVG Export Plug-In . SVG Version: 6.00 Build 0)  -->
<svg version="1.1" id="Layer_1" xmlns="http://www.w3.org/2000/svg" xmlns:xlink="http://www.w3.org/1999/xlink" x="0px" y="0px"
	 viewBox="0 0 612 612" style="enable-background:new 0 0 612 612;" xml:space="preserve">
<style type="text/css">
	.st0{stroke:#FFFFFF;stroke-miterlimit:10;}
	.st1{fill:#FFFFFF;}
	.st2{fill:none;stroke:#FFFFFF;stroke-width:20;stroke-miterlimit:10;}
</style>
<g>
	<circle class="st0" cx="296" cy="292.6" r="217.6"/>
	<g>
		<path class="st2" d="M411.3,360.9c0,3.9-3.2,7-7,7H187.7c-3.8,0-7-3.1-7-7V209.8c0-3.9,3.2-7,7-7h216.6c3.8,0,7,3.1,7,7V360.9z"/>
	</g>
	<g>
		<path class="st2" d="M301.9,273.9c-3.2,2.1-8.5,2.1-11.7,0l-103.6-67.4c-3.2-2.1-2.7-3.8,1.1-3.8h216.6c3.8,0,4.4,1.7,1.1,3.8
			L301.9,273.9z"/>
	</g>
</g>
</svg>
