<?xml version="1.0" encoding="utf-8"?>
<!-- Generator: Adobe Illustrator 21.0.0, SVG Export Plug-In . SVG Version: 6.00 Build 0)  -->
<svg version="1.1" id="Layer_1" xmlns="http://www.w3.org/2000/svg" xmlns:xlink="http://www.w3.org/1999/xlink" x="0px" y="0px"
	 viewBox="0 0 612 612" style="enable-background:new 0 0 612 612;" xml:space="preserve">
<style type="text/css">
	.st0{stroke:#FFFFFF;stroke-miterlimit:10;}
	.st1{fill:#FFFFFF;}
	.st2{fill:none;stroke:#FFFFFF;stroke-width:20;stroke-miterlimit:10;}
</style>
<g>
	<circle class="st0" cx="296" cy="289.7" r="217.6"/>
	<path class="st1" d="M217.3,182.4c14.1,0,25.2,11.1,25.2,25.2s-11.1,25.2-25.2,25.2s-25.2-11.1-25.2-25.2S203.2,182.4,217.3,182.4z
		 M238.9,264.6v133.8h-43.2V264.6H238.9z"/>
	<path class="st1" d="M275.5,264.6h43.2v15.9c13.2-16.8,28.8-19.5,41.4-19.5c11.7,0,27,2.1,38.4,13.5c12.6,12.6,13.5,28.5,13.5,39.3
		v84.6h-43.2v-68.7c0-8.7-0.3-19.8-7.2-26.7c-3.3-3.3-8.7-6-16.5-6c-9,0-14.7,3.6-18,7.2c-7.2,7.2-8.4,16.8-8.4,25.5v68.7h-43.2
		V264.6z"/>
</g>
</svg>
