<?xml version="1.0" encoding="utf-8"?>
<!-- Generator: Adobe Illustrator 21.0.0, SVG Export Plug-In . SVG Version: 6.00 Build 0)  -->
<svg version="1.1" id="Layer_1" xmlns="http://www.w3.org/2000/svg" xmlns:xlink="http://www.w3.org/1999/xlink" x="0px" y="0px"
	 viewBox="0 0 612 612" style="enable-background:new 0 0 612 612;" xml:space="preserve">
<style type="text/css">
	.st0{stroke:#FFFFFF;stroke-miterlimit:10;}
	.st1{fill:#FFFFFF;}
	.st2{fill:none;stroke:#FFFFFF;stroke-width:20;stroke-miterlimit:10;}
</style>
<g>
	<circle class="st0" cx="306.3" cy="317.2" r="217.6"/>
	<path class="st1" d="M182.8,348.9h-12.2l-30.3-60.7h21.5l15.6,32.2l15.4-33.1h10.3l15.4,33.1l15.6-32.2h21.5l-30.2,60.7h-12.1
		l-15.2-34.6L182.8,348.9z"/>
	<path class="st1" d="M298.7,348.9h-12.2l-30.2-60.7h21.5l15.6,32.2l15.4-33.1h10.3l15.4,33.1l15.6-32.2h21.5l-30.2,60.7h-12.2
		L314,314.3L298.7,348.9z"/>
	<path class="st1" d="M414.6,348.9h-12.2l-30.2-60.7h21.5l15.6,32.2l15.4-33.1H435l15.4,33.1l15.6-32.2h21.5l-30.2,60.7h-12.2
		l-15.2-34.6L414.6,348.9z"/>
</g>
</svg>
