<?xml version="1.0" encoding="utf-8"?>
<!-- Generator: Adobe Illustrator 21.0.0, SVG Export Plug-In . SVG Version: 6.00 Build 0)  -->
<svg version="1.1" id="Layer_1" xmlns="http://www.w3.org/2000/svg" xmlns:xlink="http://www.w3.org/1999/xlink" x="0px" y="0px"
	 viewBox="0 0 309.6 302.4" style="enable-background:new 0 0 309.6 302.4;" xml:space="preserve">
<style type="text/css">
	.st0{enable-background:new    ;}
	.st1{fill:#141414;}
	.st2{fill:#0F0F0F;}
	.st3{fill:#231F20;}
</style>
<g>
	<g>
		<g>
			<g>
				<g class="st0">
					<g>
						<polygon class="st1" points="3.6,49.6 89.5,9.8 117.9,188.7 33,231.9 						"/>
					</g>
					<g>
						<polygon points="110.1,155.9 194.2,113.8 198.7,142.4 114.8,185 						"/>
					</g>
					<g>
						<polygon class="st1" points="111.2,156.8 195.2,114.7 199.4,141.4 115.5,184 						"/>
					</g>
					<g>
						<polygon points="99.3,87.2 183.7,46.5 188,73.8 103.7,115.1 						"/>
					</g>
					<g>
						<polygon class="st1" points="100.3,88.2 184.7,47.4 188.7,72.8 104.4,114.1 						"/>
					</g>
					<g>
						<polygon class="st2" points="33,231.9 117.9,188.7 282.1,181.4 199.5,225.1 						"/>
					</g>
					<g>
						<polygon points="192.7,181.6 275.5,138.7 282.1,181.4 199.5,225.1 						"/>
					</g>
					<g>
						<polygon points="114.8,185 198.7,142.4 275.5,138.7 192.7,181.6 						"/>
					</g>
					<g>
						<polygon class="st2" points="115.5,184 199.4,141.4 276.2,137.7 193.4,180.5 						"/>
					</g>
					<g>
						<polygon class="st1" points="193.4,180.5 276.2,137.7 283.1,182.3 200.5,226 						"/>
					</g>
					<g>
						<polygon class="st2" points="110.1,155.9 194.2,113.8 263.1,110.4 180,152.6 						"/>
					</g>
					<g>
						<polygon points="173.5,111.6 256.9,70.2 263.1,110.4 180,152.6 						"/>
					</g>
					<g>
						<polygon points="103.7,115.1 188,73.8 256.9,70.2 173.5,111.6 						"/>
					</g>
					<g>
						<polygon class="st2" points="104.4,114.1 188.7,72.8 257.6,69.2 174.3,110.6 						"/>
					</g>
					<g>
						<polygon class="st1" points="174.3,110.6 257.6,69.2 264.1,111.3 181,153.6 						"/>
					</g>
					<g>
						<polygon class="st2" points="99.3,87.2 183.7,46.5 260.6,42.2 177.3,83.1 						"/>
					</g>
					<g>
						<polygon points="3.6,49.6 89.5,9.8 254.1,0.2 170.5,40.3 						"/>
					</g>
					<g>
						<polygon points="170.5,40.3 254.1,0.2 260.6,42.2 177.3,83.1 						"/>
					</g>
					<g>
						<path class="st2" d="M2.6,48.7l168.6-9.4l7,44.8l-78,4.1l4.1,26l69.9-3.5l6.7,42.9l-69.8,3.3l4.3,27.2l77.9-3.5l7.1,45.4
							l-168.2,6.9L2.6,48.7z M177.3,83.1l-6.7-42.8l-167,9.3L33,231.9l166.5-6.9l-6.8-43.5l-77.9,3.5l-4.6-29.1l69.8-3.3l-6.4-41
							l-69.9,3.5l-4.4-27.9L177.3,83.1"/>
					</g>
					<g>
						<polygon points="3.6,49.6 170.5,40.3 177.3,83.1 99.3,87.2 103.7,115.1 173.5,111.6 180,152.6 110.1,155.9 114.8,185 
							192.7,181.6 199.5,225.1 33,231.9 						"/>
					</g>
					<g>
						<polygon class="st1" points="171.3,39.3 254.8,-0.8 261.6,43.1 178.3,84.1 						"/>
					</g>
					<g>
						<polygon class="st2" points="2.6,48.7 88.5,8.9 254.8,-0.8 171.3,39.3 						"/>
					</g>
				</g>
			</g>
		</g>
	</g>
	<g class="st0">
		<path class="st3" d="M23.5,288.8H12.7v-30.7h10.8v4.2H18v8.5h4.5v4.3H18v9.4h5.5V288.8z"/>
		<path class="st3" d="M45.9,288.9h-5.1v-14.4l-2.3,14.4h-3.3l-2.4-14.4v14.4h-4.4v-30.8h6.2l2.4,18.1l2.9-18.1h6
			C45.9,258.1,45.9,288.9,45.9,288.9z"/>
		<path class="st3" d="M70.4,282.2c0,4.9-2.6,7-6.4,7c-4.1,0-5.8-2.5-5.8-7c0-1.7,0.2-3.2,0.3-4.3l4,0.5c-0.2,1.2-0.3,2.4-0.3,3.4
			c0,2.6,0.4,3.3,1.4,3.3c0.9,0,1.4-0.7,1.4-2.6v-0.8c0-2.3-0.6-4.4-3.2-7.5c-2.6-3.1-3.6-5.6-3.6-9.2v-0.5c0-4,1.6-7,6.1-7
			c4.4,0,5.7,2.8,5.7,7c0,1.5-0.1,2.6-0.3,3.8l-4-0.5c0.1-1,0.2-1.3,0.2-2.9c0-2.7-0.4-3.3-1.2-3.3c-0.9,0-1.2,0.6-1.2,2.4v0.6
			c0,1.8,0.7,3.6,2.6,6c2.6,3.4,4.4,7.1,4.4,11L70.4,282.2L70.4,282.2z"/>
		<path class="st3" d="M90,289.4c-2.2,0-3.2-0.7-4-1.8c-1.1,1-2.6,1.7-4.3,1.7c-3.6,0-6.7-1.9-6.7-6.8v-18.1c0-5,3.1-6.8,6.7-6.8
			s6.6,1.8,6.6,6.8v18.1c0,0.7-0.2,1.4-0.4,1.7c0.4,0.4,1,0.4,1.5,0.5c0.1,0,0.2,0,0.6,0C90,284.7,90,289.4,90,289.4z M83,263.3
			c0-1.2-0.7-1.7-1.3-1.7c-0.8,0-1.4,0.5-1.4,1.7v20.2c0,1.2,0.5,1.7,1.4,1.7c0.8,0,1.3-0.5,1.3-1.6V263.3z"/>
		<path class="st3" d="M107.5,282.8c0,4.3-2.6,6.4-6.6,6.4s-6.5-2.2-6.5-6.4V258h5.3v25.3c0,1.2,0.6,1.8,1.5,1.8
			c0.8,0,1.2-0.6,1.2-1.8V258h5.1V282.8z"/>
		<path class="st3" d="M125.8,288.8h-5.4l-0.4-4.3h-3.2l-0.4,4.3H112l4-30.7h5.7L125.8,288.8z M119.5,280.2l-1-12.2l-1.2,12.2H119.5
			z"/>
		<path class="st3" d="M138.4,288.9c-0.2-0.6-0.4-1.2-0.4-1.8c-0.1-2.7-0.1-3.7-0.1-5.6c-0.1-4.6-0.7-5.1-1.4-5.1h-0.8V289h-5.3
			v-30.8h6.6c4.3,0,6.6,2.4,6.6,8.1c0,4.3-0.4,6.6-3,7.9c2.3,1.5,2.6,5.1,2.6,7v2.3c0,2.9,0.2,4,0.5,5.5h-5.3L138.4,288.9
			L138.4,288.9z M136.5,262.3h-0.7v9.7h0.7c1.2,0,2-1,2-5.1C138.4,263,137.6,262.3,136.5,262.3z"/>
		<path class="st3" d="M159.4,288.8h-10.8v-30.7h10.8v4.2H154v8.5h4.5v4.3H154v9.4h5.5v4.3L159.4,288.8L159.4,288.8z"/>
		<path class="st3" d="M177.6,282.4c0,4.9-2.5,6.4-6.7,6.4h-6.6v-30.7h6.5c4.4,0,6.8,1.7,6.8,7V282.4z M172.3,264.5
			c0-1.8-0.5-2.2-1.6-2.2h-1v22.2h1c1.3,0,1.7-0.5,1.7-2L172.3,264.5L172.3,264.5z"/>
		<path class="st3" d="M203.4,282.4c0,4.9-2.5,6.4-6.7,6.4H190v-30.7h6.5c4.4,0,6.8,1.7,6.8,7L203.4,282.4L203.4,282.4z M198,264.5
			c0-1.8-0.5-2.2-1.6-2.2h-1v22.2h1c1.3,0,1.7-0.5,1.7-2L198,264.5L198,264.5z"/>
		<path class="st3" d="M219.4,288.8h-10.8v-30.7h10.8v4.2H214v8.5h4.5v4.3H214v9.4h5.5v4.3L219.4,288.8L219.4,288.8z"/>
		<path class="st3" d="M236,282.2c0,4.9-2.6,7-6.4,7c-4.1,0-5.8-2.5-5.8-7c0-1.7,0.2-3.2,0.3-4.3l4,0.5c-0.2,1.2-0.3,2.4-0.3,3.4
			c0,2.6,0.4,3.3,1.4,3.3c0.9,0,1.4-0.7,1.4-2.6v-0.8c0-2.3-0.6-4.4-3.2-7.5c-2.6-3.1-3.6-5.6-3.6-9.2v-0.5c0-4,1.6-7,6.1-7
			c4.4,0,5.7,2.8,5.7,7c0,1.5-0.1,2.6-0.3,3.8l-4-0.5c0.1-1,0.2-1.3,0.2-2.9c0-2.7-0.4-3.3-1.2-3.3c-0.9,0-1.2,0.6-1.2,2.4v0.6
			c0,1.8,0.7,3.6,2.6,6c2.6,3.4,4.4,7.1,4.4,11L236,282.2L236,282.2z"/>
		<path class="st3" d="M246.2,288.9h-5.3v-30.8h5.3V288.9z"/>
		<path class="st3" d="M264.6,288.8h-1.4l-0.8-1.3c-1.1,1.3-2.5,1.8-5,1.8c-3.6,0-5.9-2-5.9-6.2v-18.7c0-4.6,2.6-6.8,6.5-6.8
			c3.6,0,5.9,1.4,5.9,6.9c0,1.5-0.1,2.9-0.3,3.9l-4-0.3c0.1-0.9,0.2-1.7,0.2-3c0-2.9-0.6-3.4-1.5-3.4c-1.2,0-1.5,0.6-1.5,2v19.8
			c0,1.2,0.4,1.8,1.5,1.8c0.8,0,1.3-0.6,1.3-1.8v-9.4h5.1v14.7H264.6z"/>
		<path class="st3" d="M282.1,288.9h-3.9l-4-15.8v15.8h-4.4v-30.8h4.5l3.4,13.6v-13.6h4.4V288.9z"/>
	</g>
</g>
<g>
	
		<image style="overflow:visible;" width="133" height="99" xlink:href="25842AD37C04694B.png"  transform="matrix(1 0 0 1 -24.6918 21.9)">
	</image>
</g>
</svg>
